<svg width="512" height="512" viewBox="0 0 512 512" fill="none" xmlns="http://www.w3.org/2000/svg">
  <defs>
    <linearGradient id="giGrad" x1="0" y1="0" x2="1" y2="1">
      <stop offset="0%" stop-color="#3B82F6"/>
      <stop offset="100%" stop-color="#8B5CF6"/>
    </linearGradient>
    <filter id="soft" x="-20%" y="-20%" width="140%" height="140%">
      <feDropShadow dx="0" dy="10" stdDeviation="12" flood-color="#000000" flood-opacity="0.14"/>
    </filter>
  </defs>

  <!-- Gradient tile with soft corner radius -->
  <rect x="32" y="32" width="448" height="448" rx="96" fill="url(#giGrad)" filter="url(#soft)"/>

  <!-- Monogram G (clean, geometric) -->
  <g fill="#FFFFFF">
    <path d="M256 132c-68.9 0-124.8 55.9-124.8 124.8S187.1 381.6 256 381.6c58.7 0 108.2-40.7 121.5-95.3h-63.2c-9.8 20.2-30.5 34.2-54.3 34.2-33.4 0-60.5-27.1-60.5-60.5s27.1-60.5 60.5-60.5c23.8 0 44.4 14 54.3 34.2h63.2C364.2 172.7 314.7 132 256 132z"/>
  </g>
</svg>


