<svg width="1400" height="360" viewBox="0 0 1400 360" fill="none" xmlns="http://www.w3.org/2000/svg">
  <defs>
    <linearGradient id="giGrad" x1="0" y1="0" x2="1" y2="0">
      <stop offset="0%" stop-color="#3B82F6"/>
      <stop offset="100%" stop-color="#8B5CF6"/>
    </linearGradient>
  </defs>
  <!-- Icon -->
  <g>
    <rect x="0" y="20" width="320" height="320" rx="72" fill="url(#giGrad)"/>
    <path fill="#FFFFFF" d="M160 84c-49 0-88.8 39.8-88.8 88.8S111 261.6 160 261.6c41.8 0 77.1-26.6 87.7-62.4h-45.6c-8.6 14.6-24.3 24.2-42.1 24.2-27.7 0-50.2-22.5-50.2-50.2s22.5-50.2 50.2-50.2c17.8 0 33.5 9.6 42.1 24.2h45.6C237.1 110.6 201.8 84 160 84z"/>
  </g>

  <!-- Wordmark -->
  <g transform="translate(360, 90)">
    <text x="0" y="100" font-family="Inter, ui-sans-serif, system-ui" font-weight="800" font-size="120" fill="#0F172A">Gator</text>
    <text x="420" y="100" font-family="Inter, ui-sans-serif, system-ui" font-weight="800" font-size="120" fill="url(#giGrad)">Innovation</text>
  </g>
</svg>


