<svg width="512" height="512" viewBox="0 0 512 512" fill="none" xmlns="http://www.w3.org/2000/svg">
  <defs>
    <linearGradient id="grad" x1="0" y1="0" x2="1" y2="1">
      <stop offset="0%" stop-color="#3B82F6"/>
      <stop offset="100%" stop-color="#8B5CF6"/>
    </linearGradient>
    <filter id="shadow" x="-20%" y="-20%" width="140%" height="140%">
      <feDropShadow dx="0" dy="12" stdDeviation="16" flood-color="#000" flood-opacity="0.18"/>
    </filter>
  </defs>

  <!-- Rounded gradient tile -->
  <rect x="32" y="32" width="448" height="448" rx="96" fill="url(#grad)" filter="url(#shadow)"/>

  <!-- Minimal bulb inspired by the navbar lightbulb -->
  <g fill="#FFFFFF">
    <!-- bulb glass -->
    <path d="M256 120c-61.9 0-112 50.1-112 112 0 38.6 20.2 72.5 50.6 92.1 8.8 5.8 13.4 13.1 15 22.9h92.8c1.6-9.8 6.2-17.1 15-22.9 30.4-19.6 50.6-53.5 50.6-92.1 0-61.9-50.1-112-112-112z"/>
    <!-- filament base -->
    <rect x="196" y="348" width="120" height="26" rx="8" fill="#F8FAFC"/>
    <!-- screw lines -->
    <rect x="204" y="382" width="104" height="10" rx="5" fill="#EEF2FF"/>
  </g>
</svg>


